HIERARCHY
ROOT Hips
{
  OFFSET 14.6253 96.732 116.09
  CHANNELS 6 Xposition Yposition Zposition Zrotation Xrotation Yrotation
  JOINT RightUpLeg
  {
    OFFSET -8.9458 -8.66707 0.101652
    CHANNELS 3 Zrotation Xrotation Yrotation
    JOINT RightLeg
    {
      OFFSET 0 -44.4227 1.3727
      CHANNELS 3 Zrotation Xrotation Yrotation
      JOINT RightFoot
      {
        OFFSET 0.253549 -42.0924 -1.46059
        CHANNELS 3 Zrotation Xrotation Yrotation
        JOINT RightToes
        {
          OFFSET 0.04 -4.41509 8.4991
          CHANNELS 3 Zrotation Xrotation Yrotation
          End Site
          {
            OFFSET -0.08 -0.137448 9.77979
          }
        }
      }
    }
  }
  JOINT Spine
  {
    OFFSET 0 11.8905 0
    CHANNELS 3 Zrotation Xrotation Yrotation
    JOINT Spine1
    {
      OFFSET 0 25.6574 0.127663
      CHANNELS 3 Zrotation Xrotation Yrotation
      JOINT HEad
      {
        OFFSET 0 8.73416 0.011341
        CHANNELS 3 Zrotation Xrotation Yrotation
        End Site
        {
          OFFSET -0.29 12.7742 2.51395
        }
      }
      JOINT LeftShoulder1
      {
        OFFSET 8.99 -0.362252 -0.22
        CHANNELS 3 Zrotation Xrotation Yrotation
        JOINT LeftArm
        {
          OFFSET 10.2827 -0.00338 0.322123
          CHANNELS 3 Zrotation Xrotation Yrotation
          JOINT LeftForeArm
          {
            OFFSET 32.7669 0.099144 -1.42434
            CHANNELS 3 Zrotation Xrotation Yrotation
            JOINT LeftHand
            {
              OFFSET 27.5643 0.085362 1.02216
              CHANNELS 3 Zrotation Xrotation Yrotation
              End Site
              {
                OFFSET 16.7443 -0.6 1.50291
              }
            }
          }
        }
      }
      JOINT RightShoulder
      {
        OFFSET -8.99 -0.362252 -0.22
        CHANNELS 3 Zrotation Xrotation Yrotation
        JOINT RightArm
        {
          OFFSET -10.2827 -0.00338 0.322123
          CHANNELS 3 Zrotation Xrotation Yrotation
          JOINT RightForeArm
          {
            OFFSET -32.8971 0.099144 -1.42434
            CHANNELS 3 Zrotation Xrotation Yrotation
            JOINT RightHand
            {
              OFFSET -27.4921 0.085362 1.02216
              CHANNELS 3 Zrotation Xrotation Yrotation
              End Site
              {
                OFFSET -16.6312 -0.6 1.50291
              }
            }
          }
        }
      }
    }
  }
  JOINT LeftUpLeg
  {
    OFFSET 8.9458 -8.66707 0.101652
    CHANNELS 3 Zrotation Xrotation Yrotation
    JOINT LeftLeg
    {
      OFFSET 0 -44.4227 1.3727
      CHANNELS 3 Zrotation Xrotation Yrotation
      JOINT LeftFoot
      {
        OFFSET -0.253549 -42.0924 -1.46059
        CHANNELS 3 Zrotation Xrotation Yrotation
        JOINT LeftToes
        {
          OFFSET -0.04 -4.41509 8.4991
          CHANNELS 3 Zrotation Xrotation Yrotation
          End Site
          {
            OFFSET 0.08 -0.047448 9.77979
          }
        }
      }
    }
  }
}
MOTION
Frames:	22
Frame Time:	0.0166667
0.00000 96.00000 0.00000 0.00000 0.00000 0.00000 0.00000 0.00000 0.00000 0.00000 0.00000 0.00000 0.00000 0.00000 0.00000 0.00000 0.00000 0.00000 0.00000 0.00000 0.00000 0.00000 0.00000 0.00000 0.00000 0.00000 0.00000 0.00000 0.00000 0.00000 0.00000 0.00000 0.00000 0.00000 0.00000 0.00000 0.00000 0.00000 0.00000 0.00000 0.00000 0.00000 0.00000 0.00000 0.00000 0.00000 0.00000 0.00000 0.00000 0.00000 0.00000 0.00000 0.00000 0.00000 0.00000 0.00000 0.00000 0.00000 0.00000 0.00000 0.00000 0.00000 0.00000 
14.6253 96.732 116.09 3.06319 -3.61868 159.777 -14.1335 -5.80886 1.44107 16.4088 38.7546 -23.4578 7.37882 -13.9673 0.199895 -4.24396 -8.12953 -7.24333 -1.99432 5.4717 4.48436 -1.77825 10.6306 8.94197 -6.93094 -11.207 13.1929 3.97569e-016 -3.18055e-015 -7.95139e-016 -79.2298 -58.9471 -42.8291 -8.04423 45.3326 -109.194 31.4596 2.81035 -21.1863 15.9498 4.44242 21.2013 75.5623 -29.1112 38.7402 -16.7583 45.4221 142.332 -19.4112 15.5412 -38.4214 18.6824 -22.9855 4.70906 6.12541 28.7854 -24.5822 -18.1355 -4.45977 0.523806 8.24895 -11.0624 -0.636467 
14.7118 96.2502 116.329 2.85831 -3.49703 161.63 -14.378 -6.11773 1.39215 18.3295 40.2411 -26.6144 7.67526 -16.2732 0.360438 -2.73237 -5.88361 -7.44448 -2.56984 5.817 4.26443 -2.44764 11.2333 8.51471 -6.43644 -13.0071 12.5807 -0 0 7.95139e-016 -86.1545 -58.1144 -52.0438 -8.67598 47.4143 -105.88 32.2286 2.85838 -20.3911 15.5374 4.40227 21.4477 77.7835 -30.4849 41.0964 -17.3718 46.784 142.837 -20.4164 15.7192 -37.7211 17.8425 -24.2257 5.76166 7.92731 29.0445 -27.6198 -19.1063 -4.17305 0.598275 9.16923 -12.6366 -1.95355 
14.8398 95.8853 116.633 2.61286 -3.56595 163.646 -14.4257 -6.5796 1.31197 19.372 41.616 -28.2584 7.91717 -17.1087 0.433341 -2.61895 -5.74319 -7.71872 -3.05197 6.1531 4.0923 -3.16463 11.8322 8.21396 -6.03331 -14.7055 11.7586 1.78906e-015 0 -7.95139e-016 -91.781 -56.3302 -59.294 -9.9204 49.3017 -102.476 32.8433 2.86873 -19.8739 15.073 4.34009 21.6446 79.7231 -31.6412 43.2031 -17.7526 47.9005 143.191 -21.5079 15.9015 -36.9741 16.8619 -25.5636 6.30417 9.64186 28.8936 -30.4001 -20.1843 -3.83827 0.689712 9.7101 -13.6339 -2.86835 
14.9912 95.6294 116.962 2.40848 -3.84705 165.631 -14.239 -7.22287 1.21199 19.4491 42.9334 -28.2775 8.0825 -16.5473 0.410014 -3.81087 -7.53582 -7.97545 -3.37402 6.45407 3.99415 -3.80805 12.3811 8.09602 -5.90174 -16.1663 10.7791 -1.98785e-016 0 3.97569e-016 -95.7439 -54.0766 -64.0493 -11.7481 50.7956 -99.2415 33.1373 2.7964 -19.8867 14.4548 4.22792 21.7554 81.3721 -32.6766 45.0263 -17.7577 48.9972 143.305 -22.6162 16.0564 -36.1365 15.9279 -26.7756 6.31379 10.9515 28.3635 -32.6865 -20.8315 -3.96625 0.689286 9.61159 -13.5603 -3.09329 
15.1555 95.4644 117.287 2.29303 -4.29027 167.405 -13.8406 -7.97741 1.09386 18.5648 44.1785 -26.6725 8.235 -14.9722 0.315665 -5.95317 -10.6866 -8.22475 -3.53388 6.70745 3.98453 -4.29137 12.8567 8.16441 -6.11263 -17.2978 9.7483 1.77043e-015 6.36111e-015 1.04362e-015 -98.18 -51.8041 -66.4083 -13.7522 51.7284 -96.6101 33.0119 2.62344 -20.5519 13.6188 4.05129 21.7686 82.8939 -33.6564 46.6354 -17.4169 50.2201 143.187 -23.5776 16.1488 -35.2701 15.1481 -27.6945 6.04667 11.8775 27.4987 -34.5801 -20.7978 -4.74869 0.549175 8.87152 -12.3955 -2.59623 
15.331 95.3649 117.598 2.2821 -4.78049 168.867 -13.289 -8.68544 0.965693 16.8412 45.2615 -23.6241 8.3641 -12.8494 0.179036 -8.65318 -14.5687 -8.52673 -3.54953 6.90689 4.05465 -4.60567 13.2449 8.3872 -6.5508 -18.0526 8.79009 -8.94531e-016 6.36111e-015 1.98785e-016 -99.2635 -49.8136 -66.7178 -15.3439 52.0201 -95.0484 32.5163 2.37905 -21.7609 12.6717 3.84143 21.722 84.3497 -34.5709 48.0822 -16.8823 51.5083 142.896 -24.195 16.1604 -34.5262 14.5525 -28.2497 5.80365 12.6039 26.349 -36.2438 -20.245 -5.90056 0.335395 7.79432 -10.6953 -1.70162 
15.5236 95.3095 117.898 2.35341 -5.17537 170.019 -12.6769 -9.14814 0.862203 14.5468 46.0438 -19.5577 8.39225 -10.5896 0.0264031 -11.5649 -18.644 -8.85377 -3.44969 7.05101 4.18732 -4.80127 13.538 8.73115 -6.99175 -18.4267 7.96576 -1.19271e-015 0 -3.97569e-016 -99.1143 -48.2405 -65.3843 -16.0823 51.726 -94.8387 31.8534 2.12996 -23.167 11.8514 3.6551 21.6451 85.5447 -35.338 49.3048 -16.3461 52.6145 142.548 -24.3403 16.1073 -34.0976 14.1013 -28.4633 5.69965 13.2411 25.0205 -37.6642 -19.5013 -6.83711 0.167534 6.85148 -9.23594 -0.854159 
15.7405 95.2832 118.189 2.46219 -5.36098 170.927 -12.1088 -9.20871 0.841232 12.0566 46.4269 -15.0528 8.28019 -8.54404 -0.112975 -14.3515 -22.4599 -9.04757 -3.2677 7.14771 4.36552 -4.92602 13.7471 9.16475 -7.2609 -18.4585 7.26773 3.97569e-016 0 -0 -97.9025 -47.1256 -62.8096 -15.8436 50.9987 -95.9773 31.2915 1.94113 -24.3241 11.3229 3.52369 21.5139 86.2242 -35.8378 50.1704 -16.0013 53.2454 142.343 -23.9571 16.0223 -34.1799 13.7266 -28.4014 5.62414 13.7588 23.6759 -38.6582 -18.7875 -7.06252 0.126098 6.43666 -8.58456 -0.362647 
15.9854 95.2687 118.46 2.56954 -5.2829 171.645 -11.6488 -8.81482 0.954006 9.68499 46.433 -10.5905 8.09117 -7.02584 -0.212744 -16.6755 -25.6474 -8.92036 -3.03203 7.21262 4.5734 -4.9969 13.9005 9.65626 -7.31013 -18.2241 6.6742 -4.41391e-032 -3.18055e-015 -7.95139e-016 -95.8633 -46.4907 -59.3493 -14.7187 49.9938 -98.2458 31.0478 1.84687 -24.8801 11.0844 3.43986 21.2847 86.2876 -35.9633 50.5759 -15.9699 53.205 142.449 -23.0517 15.9181 -34.8561 13.3862 -28.1128 5.41201 14.0996 22.4758 -39.0904 -18.1651 -6.4987 0.210012 6.64925 -8.85456 -0.294937 
16.2622 95.2434 118.692 2.65244 -4.9495 172.175 -11.2964 -8.02844 1.22153 7.55576 46.1873 -6.40006 7.94156 -6.25145 -0.260889 -18.3017 -27.9846 -8.40693 -2.77999 7.25568 4.80917 -5.00308 14.0155 10.1924 -7.19386 -17.8072 6.16498 1.98785e-015 -3.18055e-015 -7.95139e-016 -93.2067 -46.319 -55.2496 -12.8913 48.8022 -101.296 31.2111 1.85289 -24.7025 11.0466 3.37975 20.9279 85.766 -35.6678 50.4713 -16.2146 52.4753 142.882 -21.7462 15.7829 -36.0029 13.0882 -27.6278 5.00189 14.267 21.5476 -39.0026 -17.6213 -5.47871 0.356937 7.29213 -9.76267 -0.545627 
16.5752 95.195 118.868 2.70302 -4.41154 172.499 -11.0174 -6.95759 1.63104 5.67105 45.7929 -2.56885 7.88734 -6.21089 -0.262759 -19.2465 -29.4942 -7.66311 -2.53802 7.26934 5.07469 -4.92272 14.0771 10.7622 -7.00933 -17.2487 5.72566 2.38542e-015 -6.36111e-015 -4.77083e-015 -90.021 -46.5056 -50.5874 -10.6588 47.4373 -104.668 31.6892 1.94572 -23.9382 11.1299 3.32713 20.4538 84.7256 -34.9938 49.8312 -16.5946 51.1966 143.536 -20.2768 15.6155 -37.3781 12.8703 -26.9712 4.44931 14.3029 20.9435 -38.5605 -17.1546 -4.42461 0.500781 8.08977 -10.9277 -0.974627 
16.9231 95.1309 118.972 2.72974 -3.71922 172.643 -10.7917 -5.67199 2.13889 4.07599 45.2617 0.760122 7.89991 -6.63943 -0.235983 -19.7851 -30.4476 -7.00455 -2.26835 7.2366 5.33601 -4.72609 14.0535 11.3091 -6.85038 -16.5149 5.38157 2.38542e-015 0 -0 -86.2515 -46.8648 -45.2728 -8.41278 45.8702 -107.866 32.2327 2.08676 -22.9763 11.308 3.28638 19.9386 83.234 -34.0278 48.6473 -16.9842 49.5617 144.273 -18.9008 15.4444 -38.7668 12.7566 -26.1611 3.8527 14.2485 20.6285 -37.9765 -16.7935 -3.61108 0.605556 8.84583 -12.0607 -1.43172 
17.3039 95.0515 119.003 2.71011 -2.88528 172.666 -10.6631 -4.22322 2.69469 2.87692 44.643 3.37664 7.97081 -7.19931 -0.201042 -20.2797 -31.2406 -6.67151 -1.97048 7.14715 5.54765 -4.40966 13.9266 11.7401 -6.79024 -15.5173 5.2128 7.95139e-016 -3.18055e-015 -3.18055e-015 -81.7973 -47.1734 -39.1647 -6.53262 44.1002 -110.5 32.558 2.21357 -22.2744 11.5927 3.27383 19.4856 81.3939 -32.8348 46.9543 -17.2771 47.7754 144.929 -17.8162 15.308 -39.9962 12.7034 -25.2236 3.27448 14.1416 20.5833 -37.4279 -16.5601 -3.19569 0.655023 9.43041 -12.9447 -1.77024 
17.7081 94.9548 118.958 2.63569 -1.90306 172.621 -10.658 -2.64648 3.25205 2.12216 44.0038 5.13987 8.16796 -7.6176 -0.174504 -20.9998 -32.213 -6.7013 -1.64355 6.9976 5.6757 -3.98185 13.6911 11.9897 -6.86499 -14.1511 5.31124 -7.95139e-016 0 1.59028e-015 -76.6827 -47.2162 -32.2532 -5.34267 42.2484 -112.332 32.4491 2.2752 -22.1624 12.0004 3.30089 19.1543 79.3644 -31.4719 44.8391 -17.3652 46.0623 145.348 -17.1086 15.2253 -40.9202 12.6644 -24.1805 2.74086 14.021 20.8196 -37.0344 -16.447 -3.29784 0.636384 9.7214 -13.3816 -1.91413 
18.1226 94.8343 118.839 2.51591 -0.774191 172.518 -10.7676 -0.992088 3.77492 1.76865 43.4298 6.06156 8.52333 -7.7634 -0.164641 -22.0753 -33.5182 -7.08936 -1.28942 6.78204 5.72134 -3.45544 13.3336 12.0643 -7.06697 -12.32 5.71702 1.19271e-015 3.18055e-015 -0 -71.151 -46.8025 -24.7488 -5.03496 40.5369 -113.316 31.7891 2.27144 -22.7456 12.5334 3.36664 18.9347 77.2978 -29.9821 42.3928 -17.1837 44.557 145.434 -16.7277 15.1861 -41.4838 12.6183 -23.0555 2.2495 13.9266 21.3772 -36.8495 -16.4267 -4.00984 0.537137 9.62022 -13.2276 -1.85742 
18.5371 94.6808 118.654 2.36948 0.485152 172.329 -10.9634 0.676029 4.24145 1.71841 43.0165 6.2847 8.9225 -7.64438 -0.172854 -23.5089 -35.0902 -7.90504 -0.90964 6.48905 5.71105 -2.8413 12.829 12.0204 -7.36306 -9.96133 6.4015 3.97569e-016 3.18055e-015 -3.18055e-015 -65.6307 -45.7682 -17.0384 -5.49364 39.0819 -113.635 30.5881 2.2582 -23.8899 13.1664 3.4591 18.7766 75.2856 -28.3419 39.6883 -16.7454 43.1983 145.166 -16.5172 15.1584 -41.7651 12.5702 -21.8693 1.76706 13.867 22.2754 -36.8263 -16.4837 -5.29509 0.360295 9.14485 -12.5218 -1.64407 
18.9485 94.4917 118.419 2.22034 1.85865 172.036 -11.1866 2.31324 4.64382 1.80367 42.8473 6.03428 9.19229 -7.35598 -0.194357 -25.179 -36.7229 -9.13254 -0.499612 6.1139 5.67041 -2.15002 12.167 11.9169 -7.70494 -7.09336 7.28031 -0 -9.54166e-015 -0 -60.631 -44.0294 -9.59642 -6.27796 37.7705 -113.654 29.0267 2.30625 -25.2689 13.869 3.56417 18.6267 73.377 -26.519 36.8121 -16.1385 41.8266 144.623 -16.2821 15.1021 -41.9162 12.5463 -20.623 1.22788 13.7835 23.4655 -36.8108 -16.6225 -6.94198 0.131525 8.44232 -11.4974 -1.36725 
19.3639 94.2777 118.161 2.08965 3.34412 171.661 -11.3402 3.92139 4.99632 1.78113 42.9586 5.55581 9.26984 -7.0043 -0.220965 -26.8812 -38.2197 -10.5463 -0.0513927 5.67511 5.6044 -1.40368 11.3873 11.7777 -8.03122 -3.85581 8.24904 -3.97569e-016 -1.59028e-015 -1.59028e-015 -56.5723 -41.6808 -2.83572 -6.88144 36.399 -113.762 27.4153 2.44418 -26.5008 14.6362 3.67432 18.448 71.6014 -24.56 33.8905 -15.5014 40.3422 143.978 -15.8799 14.99 -42.0748 12.5737 -19.2831 0.568292 13.574 24.8173 -36.6421 -16.838 -8.6824 -0.116258 7.66524 -10.386 -1.10862 
19.8014 94.0558 117.91 1.97879 4.94563 171.262 -11.3378 5.53523 5.36055 1.46778 43.3216 4.98895 9.2019 -6.63762 -0.247854 -28.4635 -39.5306 -11.8542 0.436757 5.21944 5.48689 -0.638516 10.5868 11.5656 -8.29312 -0.50652 9.24583 1.98785e-016 1.59028e-015 -0 -53.6353 -39.0506 3.06538 -7.03563 34.8844 -114.196 26.0164 2.64592 -27.3479 15.4617 3.78799 18.2429 69.9898 -22.5335 31.0986 -14.9637 38.721 143.395 -15.2636 14.8195 -42.3433 12.6484 -17.8013 -0.200078 13.1841 26.1385 -36.2855 -17.1017 -10.3143 -0.357188 6.89842 -9.30224 -0.869995 
20.2861 93.8318 117.7 1.85879 6.64031 170.926 -11.1801 7.17036 5.83196 0.929711 43.8638 4.26829 9.01858 -6.21307 -0.277072 -29.9917 -40.8048 -12.9548 0.945651 4.80674 5.27861 0.0996887 9.88231 11.2066 -8.47418 2.63925 10.2394 3.97569e-016 0 -0 -51.7561 -36.6055 8.14091 -6.79902 33.343 -114.967 24.911 2.86359 -27.8288 16.3066 3.90171 18.034 68.5919 -20.438 28.6319 -14.6028 36.9228 142.948 -14.4189 14.5963 -42.8279 12.7306 -16.1834 -0.969287 12.6614 27.243 -35.859 -17.3547 -11.6856 -0.567651 6.22365 -8.34587 -0.605854 
20.8336 93.5858 117.566 1.70434 8.3475 170.755 -10.9488 8.77228 6.43661 0.474005 44.5317 3.24698 8.69733 -5.67181 -0.310755 -31.7032 -42.2354 -14.0368 1.45905 4.48082 4.96596 0.771224 9.35264 10.6673 -8.56709 5.30248 11.1478 -2.98177e-016 0 -0 -50.7447 -34.7209 12.415 -6.38924 31.9908 -115.933 24.0845 3.04817 -28.1167 17.1193 4.00106 17.7965 67.4701 -18.239 26.6363 -14.4685 34.8631 142.677 -13.2973 14.3086 -43.6377 12.7939 -14.5713 -1.60727 12.124 28.0822 -35.5575 -17.4971 -12.6768 -0.722359 5.7632 -7.68014 -0.321051 
